<svg width="19" height="24" viewBox="0 0 19 24" fill="none" xmlns="http://www.w3.org/2000/svg">
<path d="M18.5983 19.0995C18.0929 18.6923 17.7025 18.1603 17.4658 17.556C16.5996 15.3079 16.1976 12.9077 16.2838 10.5C16.2838 10.491 16.2838 10.482 16.2838 10.473C16.2778 9.16779 15.8968 7.8918 15.1862 6.79696C14.4756 5.70211 13.4654 4.83453 12.2758 4.2975V2.673C12.2754 1.96472 11.994 1.28551 11.4935 0.784401C10.9929 0.283289 10.3141 0.00119162 9.60578 0L9.38528 0C8.67726 0.00158828 7.99875 0.28386 7.49853 0.78493C6.9983 1.286 6.71717 1.96498 6.71677 2.673V4.2975C5.52269 4.8362 4.50933 5.70787 3.79817 6.808C3.08701 7.90813 2.70824 9.19003 2.70727 10.5C2.79267 12.9057 2.39061 15.3037 1.52528 17.55C1.28853 18.1543 0.898161 18.6863 0.392775 19.0935C0.250536 19.1602 0.135614 19.2739 0.067322 19.4154C-0.000970006 19.5569 -0.018468 19.7176 0.0177748 19.8705C0.055549 20.0284 0.145923 20.1688 0.274042 20.2686C0.402162 20.3684 0.560406 20.4216 0.722777 20.4195H5.87678C5.87678 21.3795 6.25811 22.3001 6.9369 22.9789C7.61569 23.6577 8.53632 24.039 9.49627 24.039C10.4562 24.039 11.3769 23.6577 12.0556 22.9789C12.7344 22.3001 13.1158 21.3795 13.1158 20.4195H18.2698C18.4321 20.4216 18.5904 20.3684 18.7185 20.2686C18.8466 20.1688 18.937 20.0284 18.9748 19.8705C19.0094 19.7183 18.9909 19.5589 18.9225 19.4186C18.854 19.2784 18.7396 19.1658 18.5983 19.0995ZM8.12227 2.673C8.12267 2.33801 8.25582 2.01684 8.49255 1.77983C8.72928 1.54282 9.05029 1.40929 9.38528 1.4085H9.60578C9.94076 1.40929 10.2618 1.54282 10.4985 1.77983C10.7352 2.01684 10.8684 2.33801 10.8688 2.673V3.8415C9.96278 3.65497 9.02827 3.65497 8.12227 3.8415V2.673ZM9.49627 22.5915C8.91791 22.5905 8.3628 22.3637 7.94923 21.9594C7.53567 21.555 7.29636 21.0052 7.28228 20.427H11.7088C11.6947 21.0052 11.4554 21.555 11.0418 21.9594C10.6283 22.3637 10.0731 22.5905 9.49478 22.5915H9.49627ZM12.3283 19.0185H2.32478C2.45859 18.8094 2.58174 18.5936 2.69378 18.372C3.7578 15.8896 4.24304 13.1977 4.11277 10.5C4.11277 9.07261 4.67981 7.70367 5.68913 6.69435C6.69845 5.68503 8.06738 5.118 9.49478 5.118C10.9222 5.118 12.2911 5.68503 13.3004 6.69435C14.3097 7.70367 14.8768 9.07261 14.8768 10.5C14.8768 10.509 14.8768 10.518 14.8768 10.5255C14.7503 13.2133 15.236 15.8948 16.2973 18.3675C16.4093 18.5891 16.5325 18.8048 16.6663 19.014L12.3283 19.0185Z" fill="white"/>
</svg>
