<svg width="16" height="16" viewBox="0 0 16 16" fill="none" xmlns="http://www.w3.org/2000/svg">
<path d="M3 11H5V13H3V11Z" fill="#535353"/>
<path d="M3 8H5V10H3V8Z" fill="#535353"/>
<path d="M3 5H5V7H3V5Z" fill="#535353"/>
<path d="M3 0.5C3 0.223858 3.22386 0 3.5 0C3.77614 0 4 0.223858 4 0.5V3.5C4 3.77614 3.77614 4 3.5 4C3.22386 4 3 3.77614 3 3.5V0.5Z" fill="#535353"/>
<path d="M11 2H5V3H11V2Z" fill="#535353"/>
<path d="M14 3C14.5523 3 15 3.44772 15 4V14C15 14.5523 14.5523 15 14 15H2C1.44772 15 1 14.5523 1 14V4C1 3.44772 1.44772 3 2 3V2C0.895431 2 0 2.89543 0 4V14C0 15.1046 0.895431 16 2 16H14C15.1046 16 16 15.1046 16 14V4C16 2.89543 15.1046 2 14 2V3Z" fill="#535353"/>
<path d="M12 0.5C12 0.223858 12.2239 0 12.5 0C12.7761 0 13 0.223858 13 0.5V3.5C13 3.77614 12.7761 4 12.5 4C12.2239 4 12 3.77614 12 3.5V0.5Z" fill="#535353"/>
<path d="M7 11H9V13H7V11Z" fill="#535353"/>
<path d="M7 8H9V10H7V8Z" fill="#535353"/>
<path d="M7 5H9V7H7V5Z" fill="#535353"/>
<path d="M11 11H13V13H11V11Z" fill="#535353"/>
<path d="M11 8H13V10H11V8Z" fill="#535353"/>
<path d="M11 5H13V7H11V5Z" fill="#535353"/>
</svg>
