<svg width="7" height="11" viewBox="0 0 7 11" fill="none" xmlns="http://www.w3.org/2000/svg">
<path d="M0.889819 11C1.13529 11 1.3424 10.9156 1.51116 10.7469L6.106 6.19805C6.32078 5.99093 6.4205 5.76848 6.4205 5.5C6.4205 5.23152 6.32078 5.00139 6.11367 4.80195L1.51116 0.253138C1.3424 0.0843794 1.13529 0 0.889819 0C0.398884 0 0 0.391213 0 0.882148C0 1.12762 0.0997211 1.35007 0.276151 1.53417L4.31102 5.50767L0.276151 9.4735C0.0997211 9.64993 0 9.87239 0 10.1179C0 10.6088 0.398884 11 0.889819 11Z" fill="#FF7A00"/>
</svg>
