<svg width="19" height="19" viewBox="0 0 19 19" fill="none" xmlns="http://www.w3.org/2000/svg">
<path d="M1 9H7C7.553 9 8 8.553 8 8V2C8 1.447 7.553 1 7 1H1C0.447 1 0 1.447 0 2V8C0 8.553 0.447 9 1 9ZM1 19H7C7.553 19 8 18.553 8 18V12C8 11.447 7.553 11 7 11H1C0.447 11 0 11.447 0 12V18C0 18.553 0.447 19 1 19ZM11 19H17C17.553 19 18 18.553 18 18V12C18 11.447 17.553 11 17 11H11C10.447 11 10 11.447 10 12V18C10 18.553 10.447 19 11 19ZM18.293 4.293L14.707 0.707C14.316 0.316 13.684 0.316 13.293 0.707L9.707 4.293C9.316 4.684 9.316 5.316 9.707 5.707L13.293 9.293C13.684 9.684 14.316 9.684 14.707 9.293L18.293 5.707C18.684 5.316 18.684 4.684 18.293 4.293Z" fill="#7D7D7D"/>
</svg>
