<svg width="27" height="44" viewBox="0 0 27 44" fill="none" xmlns="http://www.w3.org/2000/svg">
<path d="M0 11.9429H6.23772C6.50893 7.99184 9.19085 5.50748 13.3493 5.50748C17.4777 5.50748 20.1596 7.99184 20.1596 11.3742C20.1596 14.4571 18.8638 16.1932 15.2176 18.3782C11.0893 20.8327 9.25112 23.5265 9.40178 27.7469L9.43192 30.1415H15.6696V28.3156C15.6696 25.2327 16.7846 23.6463 20.6719 21.3714C24.6496 19.0068 27 15.7442 27 11.1048C27 4.69932 21.6362 0 13.6808 0C4.94196 0 0.271205 5.1483 0 11.9429ZM12.596 44C14.856 44 16.5737 42.3238 16.5737 40.1388C16.5737 37.9537 14.856 36.2776 12.596 36.2776C10.3962 36.2776 8.64844 37.9537 8.64844 40.1388C8.64844 42.3238 10.3962 44 12.596 44Z" fill="#CF1010"/>
</svg>
